<svg id="Layer_1" data-name="Layer 1" xmlns="http://www.w3.org/2000/svg" viewBox="0 0 500 500"><defs><style>.cls-1{fill:#fff;stroke:#000;stroke-miterlimit:10;}.cls-2{fill:none;}.cls-3{fill:#ff0600;}.cls-4{font-size:29px;font-family:FoundationSans-Bold, Foundation Sans;font-weight:700;}.cls-5{fill:#f70808;}.cls-6{letter-spacing:-0.02em;}.cls-7{letter-spacing:-0.03em;}.cls-8{letter-spacing:0.01em;}.cls-9{letter-spacing:0em;}.cls-10{fill:#ffffff; font-size:12px;}.cls-11{letter-spacing:0em;}.cls-12{letter-spacing:0em;}.cls-13{letter-spacing:-0.01em;}.cls-14{letter-spacing:0.01em;}.cls-15{letter-spacing:0.01em;}.cls-16{letter-spacing:0.01em;}.cls-17{letter-spacing:0.02em;}.cls-18{letter-spacing:-0.01em;}</style></defs><title>KDC-white(text)</title><polygon class="cls-1" points="174.06 253.17 134.66 253.17 89.66 302.37 89.66 253.17 60.26 253.17 60.26 386.57 89.66 386.57 89.66 338.77 102.06 326.17 142.46 386.57 178.46 386.57 122.06 305.77 174.06 253.17"/><path class="cls-1" d="M406.06,340.57c-1.4,6.8-3,10.4-5.6,13.8-5.2,6.2-13.4,9.8-22.6,9.8-21.2,0-33.8-16.6-33.8-44.4,0-28,12.8-44.2,34.6-44.2,14.2,0,24.2,7.4,27,20.2h.54l21.35-23.42c-9.86-14.15-27.09-22.18-49.09-22.18-39.6,0-64.4,26.8-64.4,69.6,0,42.6,25.2,69.8,64.6,69.8,23.57,0,41.82-9.6,51.65-26.08l-22.1-22.92Z"/><path class="cls-2" d="M248,295H221.06v66h20.2c13.6,0,21.8-3.8,27.4-13,4.4-7.4,6.6-16.6,6.6-28.2,0-11.2-2-20-6.4-27.6-5.2-9.2-13.4-13.4-25.6-13.4h-22.2v.73h0V295Z"/><path class="cls-1" d="M297.46,274.57c-12-13.6-26.2-18.4-53.2-18.4h-15.8l-29.4,23.66v2.67h30v-.73h22.2c12.2,0,20.4,4.2,25.6,13.4,4.4,7.6,6.4,16.4,6.4,27.6,0,11.6-2.2,20.8-6.6,28.2-5.6,9.2-13.8,13-27.4,13h-20.2V298h-30v91.57h46.2c24.8,0,39.6-5.2,51.2-17.6,11-12,17.4-30.4,17.4-49.8C313.86,303.57,308.06,286.57,297.46,274.57Z"/><rect class="cls-1" x="232" y="176" width="21.21" height="21.21"/><rect class="cls-1" x="258.79" y="203.35" width="21.21" height="21.21"/><rect class="cls-1" x="232" y="203.35" width="21.21" height="21.21"/><rect class="cls-1" x="258.79" y="176" width="21.21" height="21.21"/><polygon class="cls-3" points="214.95 166.52 218.36 169.93 259.44 128.85 300.51 169.93 303.98 166.45 259.5 121.97 214.95 166.52"/><rect class="cls-1" x="288" y="92" width="16" height="45" rx="5.63" ry="5.63"/><polygon class="cls-1" points="259.5 85.97 157.21 188.26 178.21 200.26 214.95 163.52 212.88 161.44 259.44 114.88 306 161.44 303.98 163.45 340.79 200.26 361.79 188.26 259.5 85.97"/><polygon class="cls-1" points="157.49 186.97 63.31 203.91 66.23 220.1 178 200 157.49 186.97"/><polygon class="cls-1" points="360.82 186.97 455 203.91 452.09 220.1 340.31 200 360.82 186.97"/><text class="cls-4" transform="translate(125.46 436.92) scale(1.34 1)"><tspan class="cls-5">KENNY <tspan class="cls-6" x="101.47" y="0">D</tspan><tspan class="cls-7" x="120.9" y="0">A</tspan><tspan x="138.47" y="0">V</tspan><tspan class="cls-8" x="155.61" y="0">I</tspan><tspan class="cls-9" x="164.31" y="0">S</tspan></tspan><tspan class="cls-10"><tspan class="" x="35.46" y="14.4">C</tspan><tspan class="cls-11" x="43.73" y="14.4">O</tspan><tspan class="cls-12" x="52.75" y="14.4">NTR</tspan><tspan class="cls-13" x="75.56" y="14.4">A</tspan><tspan class="cls-14" x="83.01" y="14.4">C</tspan><tspan class="cls-11" x="91.4" y="14.4">T</tspan><tspan class="cls-15" x="98.25" y="14.4">I</tspan><tspan class="cls-16" x="101.84" y="14.4">N</tspan><tspan class="cls-17" x="110.11" y="14.4">G</tspan><tspan x="118.93" y="14.4">, L</tspan><tspan class="cls-18" x="132.37" y="14.4">L</tspan><tspan x="138.97" y="14.4">C</tspan></tspan></text></svg>